<?xml version="1.0" encoding="utf-8"?>
<!-- Generator: Adobe Illustrator 15.0.2, SVG Export Plug-In . SVG Version: 6.00 Build 0)  -->
<!DOCTYPE svg PUBLIC "-//W3C//DTD SVG 1.1//EN" "http://www.w3.org/Graphics/SVG/1.1/DTD/svg11.dtd">
<svg version="1.1" id="Layer_1" xmlns="http://www.w3.org/2000/svg" xmlns:xlink="http://www.w3.org/1999/xlink" x="0px" y="0px"
	 width="1545.552px" height="883.456px" viewBox="0 0 1545.552 883.456" enable-background="new 0 0 1545.552 883.456"
	 xml:space="preserve">
<g>
	<text transform="matrix(0.9701 0 -0.2425 0.9701 33.0688 133.4834)" font-family="'TemplateGothicBold'" font-size="126.4259">The</text>
	<g>
		<path d="M174.671,836.021l-8.744-11.576c-5.404-7.203-11.578-7.203-18.01-1.287l-7.461,6.688
			c-10.549,9.518-24.955,11.836-38.846,11.836c-14.666,0-47.337-11.064-47.337-51.713c0-24.438,20.068-41.93,29.069-50.42
			l3.602-3.344c2.574-2.316,2.832-6.434,0.516-9.264l-3.602-4.631c-7.202-9.518-7.716-15.693-7.716-24.697
			c0-17.494,15.946-40.904,41.419-40.904c25.467,0,46.307,20.838,46.307,46.309c0,10.547-6.176,23.152-10.033,25.982l-9.262,6.947
			c-4.117,3.086-4.117,7.717-0.773,12.092l16.982,21.865c1.283,1.543,4.113,4.371,7.201,4.371c5.146,0,4.631-2.828,7.717-5.143
			l16.725-13.377c4.373-4.115,8.23-4.887,11.318-2.059c3.088,2.832,1.545,7.977-1.025,11.32l-15.697,19.295
			c-3.857,4.887-3.857,14.146,1.287,20.322l10.549,12.863c6.688,8.23,2.572,24.439-12.092,24.439
			C182.136,841.938,177.761,840.137,174.671,836.021z M103.667,747.523l-4.117,4.117c-6.174,6.174-13.635,16.979-13.635,35.242
			c0,25.984,15.18,34.473,27.012,34.473c4.635,0,13.123-2.57,16.98-5.66l10.033-9.002c2.318-2.059,3.859-9.521-0.256-14.666
			L103.667,747.523z M126.822,727.713l10.549-8.23c3.344-2.574,7.975-9.262,7.975-16.465c0-13.121-10.549-28.814-23.41-28.814
			c-16.467,0-18.781,23.668-10.035,34.73L126.822,727.713z"/>
	</g>
	<text transform="matrix(0.9701 0 -0.2425 0.9701 280.3589 841.8301)" font-family="'TemplateGothicBold'" font-size="233.4017">BALL</text>
	<g>
		<g>
			<path d="M1189.863,238.891v-21.707c5.1-1.164,8.92-5.71,8.92-11.175c0-6.34-5.125-11.485-11.496-11.485
				c-6.328,0-11.473,5.139-11.473,11.485c0,4.998,3.201,9.198,7.664,10.776v22.094h-60.881v88.984h129.168v-88.973H1189.863z"/>
			<path d="M1016.723,350.535l0.354,260.473h63.934V441.166h15.285v429.127h85.25V627.559h14.748v242.734h85.766V441.166h14.777
				l238.363-124.898l-34.055-66.48l-204.303,100.748H1016.723z"/>
		</g>
		<g>
			
				<rect x="1259.32" y="176.45" transform="matrix(0.4806 0.8769 -0.8769 0.4806 909.3182 -1168.5726)" width="363.648" height="13.785"/>
			<polygon points="1264.393,155.31 1408.717,158.334 1339.172,31.834 			"/>
		</g>
		<g>
			<path fill="#FFFFFF" d="M1229.139,415.111c3.479-4.408,7.084-8.684,10.559-13.225c0.131-0.137,0.131-0.137,0.131-0.137
				c-3.873-5.209-8.551-9.754-14.031-13.762c0,0,0,0,0,0.133c-4.41,3.475-8.682,7.082-12.826,10.691
				c-1.738-1.07-3.342-2.006-5.078-2.676c-2.006-1.066-4.143-1.869-6.416-2.537c-0.801-0.266-1.602-0.4-2.404-0.668
				c-0.402-5.615-1.07-11.225-1.602-16.836c-2.672-0.402-5.484-0.668-8.154-0.803c-0.799,0-1.469,0-2.139,0
				c-0.666,0-1.334,0-2.135,0c-2.406,0.135-4.812,0.266-7.215,0.67c-0.537,5.611-1.07,11.223-1.605,16.834
				c-0.936,0.135-1.871,0.402-2.672,0.67c-0.268,0-0.535,0.133-0.803,0.133c-2.137,0.668-4.275,1.471-6.279,2.537
				c-1.738,0.67-3.344,1.605-4.945,2.676c-4.275-3.609-8.553-7.084-12.961-10.559c0,0-0.139-0.133-0.27-0.266
				c-0.934,0.799-2.002,1.602-2.938,2.404c-1.605,1.336-3.074,2.672-4.543,4.275c-2.271,2.139-4.275,4.676-6.145,7.219
				c0,0.131,0,0.131,0.131,0.131c3.473,4.41,6.947,8.686,10.557,12.828c-0.938,1.602-1.873,3.342-2.674,4.943
				c-0.936,2.139-1.869,4.279-2.404,6.551c-0.135,0-0.135,0-0.135,0.131c-0.266,0.803-0.533,1.738-0.668,2.809
				c-5.746,0.4-11.357,0.936-16.971,1.602c-0.268,2.541-0.533,5.213-0.67,7.885c0.137,4.008,0.402,7.883,1.07,11.627
				c5.48,0.668,10.961,1.199,16.57,1.602c0.135,0.934,0.402,1.869,0.668,2.807c0.67,2.271,1.604,4.543,2.539,6.68
				c0.938,1.738,1.736,3.611,2.941,5.346c-3.479,4.281-7.082,8.553-10.422,12.965c3.873,5.344,8.418,10.02,13.76,13.76
				c0,0,0,0,0.135,0c4.277-3.607,8.551-7.08,12.828-10.689c0,0,0,0,0-0.137c1.471,0.939,2.807,1.744,4.41,2.41
				c2.406,1.068,4.811,2.006,7.217,2.674c0.936,0.266,1.736,0.531,2.672,0.668c0.4,5.744,1.068,11.221,1.605,16.836
				c2.402,0.402,4.809,0.533,7.348,0.67c0.668,0,1.869,0,3.877,0c2.805-0.137,5.609-0.402,8.418-0.803
				c0.531-5.613,1.199-11.225,1.602-16.973c0.803-0.133,1.604-0.398,2.406-0.533c2.271-0.668,4.41-1.471,6.545-2.539
				c1.738-0.801,3.611-1.738,5.348-2.939c0,0,0.133,0,0.268,0.135c4.275,3.605,8.549,7.08,13.092,10.689
				c0.807-0.668,1.607-1.334,2.275-1.867c1.6-1.473,3.205-2.809,4.678-4.414c2.271-2.404,4.541-5.076,6.545-7.883
				c-3.475-4.406-7.084-8.684-10.693-12.959c-0.129,0-0.129-0.137-0.129-0.137c0.932-1.471,1.604-2.938,2.402-4.406
				c0.938-2.01,1.738-4.145,2.408-6.281c0-0.27,0.135-0.535,0.135-0.668c0.268-0.805,0.396-1.604,0.668-2.275
				c5.609-0.535,11.221-1.064,16.836-1.602c0.402-2.539,0.535-5.211,0.67-7.885c0-0.666,0-1.336,0-2.004s0-1.336,0-2.004
				c-0.135-2.672-0.268-5.344-0.67-7.881c-5.609-0.537-11.223-1.074-16.836-1.605c-0.271-0.67-0.4-1.471-0.668-2.271
				c-0.668-2.408-1.605-4.678-2.541-6.949C1231.012,418.188,1230.072,416.584,1229.139,415.111z M1187.582,416.447
				c6.545,0,12.158,2.273,16.971,6.951c4.674,4.678,6.947,10.289,6.947,16.971c0,6.547-2.273,12.162-6.947,16.971
				c-4.814,4.678-10.426,6.949-16.971,6.949c-6.682,0-12.295-2.271-16.971-6.949c-4.676-4.809-7.082-10.424-7.082-16.971
				c0-6.682,2.406-12.293,7.082-16.971S1180.9,416.447,1187.582,416.447z"/>
			<path fill="#FFFFFF" d="M1202.279,425.803c-4.01-4.01-8.818-6.014-14.566-6.014c-5.609,0-10.555,2.004-14.564,6.014
				c-3.875,4.008-5.877,8.82-5.877,14.566c0,5.611,2.002,10.424,5.877,14.432h0.135c4.008,4.008,8.82,6.014,14.43,6.014
				c5.748,0,10.557-2.006,14.566-6.014l0,0c4.012-4.008,6.014-8.822,6.014-14.432l0,0
				C1208.293,434.623,1206.291,429.811,1202.279,425.803z M1187.713,425.002c4.273,0,7.887,1.469,10.957,4.543
				c2.943,2.941,4.41,6.549,4.41,10.824l0,0c0,4.275-1.467,7.75-4.41,10.824l0,0c-3.07,2.939-6.684,4.543-10.957,4.543
				c-4.141,0-7.881-1.604-10.822-4.543l0,0c-3.074-3.074-4.543-6.682-4.543-10.824c0-4.275,1.469-7.883,4.543-10.824
				C1179.832,426.471,1183.572,425.002,1187.713,425.002z"/>
		</g>
	</g>
	<text transform="matrix(0.9701 0 -0.2425 0.9701 33.3442 360.7749)" font-family="'TemplateGothicBold'" font-size="233.4017">ROBOT</text>
	<g>
		<rect y="396.887" width="887" height="228"/>
		
			<text transform="matrix(0.9701 0 -0.2425 0.9701 31.3979 597.4141)" fill="#FFFFFF" font-family="'TemplateGothicBold'" font-size="233.4017">PARADE</text>
	</g>
</g>
</svg>
